name C:\Users\u0101727\Documents\MyRepositories\upper-imu-dc\Results\main_tracking\Case_14\ABD01_linearAccelerations_bodyFrame.mot
datacolumns 4
datarows 117
range 6.31000000 7.47000000
endheader 
time	radius_imu_x	radius_imu_y	radius_imu_z	
          6.31000000	          0.94782553	         -8.46269891	          4.86957201	
          6.32000000	          0.82661855	         -8.46208459	          4.81450724	
          6.33000000	          0.69138503	         -8.45602647	          4.74701854	
          6.34000000	          0.55119619	         -8.45085288	          4.66799786	
          6.35000000	          0.41217475	         -8.45322289	          4.57906988	
          6.36000000	          0.27641484	         -8.46830336	          4.48295733	
          6.37000000	          0.14214122	         -8.49778722	          4.38369154	
          6.38000000	          0.00551638	         -8.53885405	          4.28630328	
          6.39000000	         -0.13653061	         -8.58480068	          4.19589187	
          6.40000000	         -0.28348825	         -8.62780053	          4.11632539	
          6.41000000	         -0.43036180	         -8.66282741	          4.04903949	
          6.42000000	         -0.56890332	         -8.68994323	          3.99265409	
          6.43000000	         -0.69026120	         -8.71378408	          3.94351401	
          6.44000000	         -0.78783579	         -8.74075349	          3.89687789	
          6.45000000	         -0.85938104	         -8.77566285	          3.84832700	
          6.46000000	         -0.90756363	         -8.81947651	          3.79499096	
          6.47000000	         -0.93864114	         -8.86898365	          3.73622835	
          6.48000000	         -0.95963248	         -8.91834262	          3.67351221	
          6.49000000	         -0.97513039	         -8.96180269	          3.60957144	
          6.50000000	         -0.98539603	         -8.99637039	          3.54728396	
          6.51000000	         -0.98670061	         -9.02305016	          3.48896108	
          6.52000000	         -0.97343089	         -9.04601119	          3.43621804	
          6.53000000	         -0.94064910	         -9.07016507	          3.39014688	
          6.54000000	         -0.88594514	         -9.09843288	          3.35148118	
          6.55000000	         -0.80990617	         -9.13017925	          3.32062617	
          6.56000000	         -0.71576623	         -9.16041931	          3.29767995	
          6.57000000	         -0.60770046	         -9.18338870	          3.28191246	
          6.58000000	         -0.48970432	         -9.19494609	          3.27153449	
          6.59000000	         -0.36487947	         -9.19470370	          3.26369588	
          6.60000000	         -0.23591547	         -9.18634430	          3.25521469	
          6.61000000	         -0.10396075	         -9.17196297	          3.24266319	
          6.62000000	          0.02805835	         -9.16126313	          3.22356463	
          6.63000000	          0.15638549	         -9.16304729	          3.19669176	
          6.64000000	          0.27877993	         -9.17436874	          3.16170492	
          6.65000000	          0.39066025	         -9.19493162	          3.11935174	
          6.66000000	          0.48698448	         -9.22339623	          3.07035231	
          6.67000000	          0.56209689	         -9.25688142	          3.01574729	
          6.68000000	          0.61061383	         -9.29004665	          2.95725577	
          6.69000000	          0.62868169	         -9.31493478	          2.89749605	
          6.70000000	          0.61508828	         -9.32281710	          2.83958663	
          6.71000000	          0.57163015	         -9.30792189	          2.78617491	
          6.72000000	          0.50277767	         -9.27092281	          2.73841154	
          6.73000000	          0.41495060	         -9.21953983	          2.69554657	
          6.74000000	          0.31540205	         -9.16581725	          2.65537610	
          6.75000000	          0.21065143	         -9.12216781	          2.61514735	
          6.76000000	          0.10502327	         -9.09848990	          2.57234041	
          6.77000000	          0.00025888	         -9.10109152	          2.52500855	
          6.78000000	         -0.10352173	         -9.13255532	          2.47187407	
          6.79000000	         -0.20629225	         -9.19141649	          2.41256612	
          6.80000000	         -0.30703645	         -9.27168631	          2.34795191	
          6.81000000	         -0.40348930	         -9.36321368	          2.28018059	
          6.82000000	         -0.49237477	         -9.45343471	          2.21226663	
          6.83000000	         -0.56987510	         -9.52994771	          2.14740846	
          6.84000000	         -0.63198685	         -9.58313778	          2.08825466	
          6.85000000	         -0.67535422	         -9.60796207	          2.03644830	
          6.86000000	         -0.69793119	         -9.60507319	          1.99235425	
          6.87000000	         -0.69951625	         -9.58118649	          1.95503968	
          6.88000000	         -0.68187500	         -9.54785846	          1.92272354	
          6.89000000	         -0.64829862	         -9.51812381	          1.89375309	
          6.90000000	         -0.60275703	         -9.50201706	          1.86755015	
          6.91000000	         -0.54921445	         -9.50309868	          1.84501668	
          6.92000000	         -0.49199296	         -9.51820086	          1.82831174	
          6.93000000	         -0.43631084	         -9.54053614	          1.81985572	
          6.94000000	         -0.38823295	         -9.56408426	          1.82117912	
          6.95000000	         -0.35351885	         -9.58620650	          1.83223983	
          6.96000000	         -0.33581862	         -9.60705803	          1.85149833	
          6.97000000	         -0.33518580	         -9.62681758	          1.87648139	
          6.98000000	         -0.34789743	         -9.64323968	          1.90434387	
          6.99000000	         -0.36798204	         -9.65160118	          1.93211790	
          7.00000000	         -0.38961812	         -9.64693136	          1.95668542	
          7.01000000	         -0.40903851	         -9.62674354	          1.97467539	
          7.02000000	         -0.42530060	         -9.59269429	          1.98243952	
          7.03000000	         -0.44004720	         -9.55055139	          1.97622118	
          7.04000000	         -0.45680024	         -9.50875229	          1.95253399	
          7.05000000	         -0.48041866	         -9.47638158	          1.90861273	
          7.06000000	         -0.51668268	         -9.46122123	          1.84281664	
          7.07000000	         -0.57131661	         -9.46796400	          1.75499735	
          7.08000000	         -0.64828525	         -9.49685096	          1.64681877	
          7.09000000	         -0.74818748	         -9.54331975	          1.52189450	
          7.10000000	         -0.86777349	         -9.59882116	          1.38562590	
          7.11000000	         -1.00100951	         -9.65265530	          1.24475863	
          7.12000000	         -1.14121842	         -9.69460156	          1.10676774	
          7.13000000	         -1.28300139	         -9.71764856	          0.97912133	
          7.14000000	         -1.42241393	         -9.71947071	          0.86851249	
          7.15000000	         -1.55496233	         -9.70160934	          0.78021584	
          7.16000000	         -1.67307280	         -9.66719993	          0.71764803	
          7.17000000	         -1.76567917	         -9.61934959	          0.68214724	
          7.18000000	         -1.82085114	         -9.56137828	          0.67297483	
          7.19000000	         -1.82978558	         -9.49827240	          0.68748400	
          7.20000000	         -1.78970268	         -9.43754140	          0.72146564	
          7.21000000	         -1.70436699	         -9.38788276	          0.76983405	
          7.22000000	         -1.58254879	         -9.35584397	          0.82765249	
          7.23000000	         -1.43545136	         -9.34259579	          0.89110034	
          7.24000000	         -1.27397323	         -9.34289204	          0.95797181	
          7.25000000	         -1.10650461	         -9.34671738	          1.02767441	
          7.26000000	         -0.93788384	         -9.34268679	          1.10096758	
          7.27000000	         -0.76974924	         -9.32147742	          1.17971729	
          7.28000000	         -0.60183424	         -9.27780940	          1.26671447	
          7.29000000	         -0.43338574	         -9.21056912	          1.36538746	
          7.30000000	         -0.26409273	         -9.12166425	          1.47941743	
          7.31000000	         -0.09425053	         -9.01465528	          1.61237181	
          7.32000000	          0.07572930	         -8.89405535	          1.76724576	
          7.33000000	          0.24597473	         -8.76524868	          1.94590555	
          7.34000000	          0.41744701	         -8.63416011	          2.14873080	
          7.35000000	          0.59155049	         -8.50615409	          2.37464372	
          7.36000000	          0.76906381	         -8.38472884	          2.62139062	
          7.37000000	          0.94897401	         -8.27114745	          2.88577654	
          7.38000000	          1.12809052	         -8.16548371	          3.16361486	
          7.39000000	          1.30168916	         -8.06829606	          3.44943478	
          7.40000000	          1.46458461	         -7.98152534	          3.73630144	
          7.41000000	          1.61198459	         -7.90783012	          4.01610659	
          7.42000000	          1.74000262	         -7.84884843	          4.28036283	
          7.43000000	          1.84593959	         -7.80371457	          4.52122215	
          7.44000000	          1.92824484	         -7.76892012	          4.73238727	
          7.45000000	          1.98598340	         -7.73954592	          4.90975271	
          7.46000000	          2.01798056	         -7.71088479	          5.05180394	
          7.47000000	          2.02221489	         -7.67937470	          5.15984377	
